<svg xmlns="http://www.w3.org/2000/svg" width="18" height="18" viewBox="0 0 18 18">
  <g id="Add_Dark" transform="translate(-247 -117)">
    <rect id="iconBase" width="18" height="18" transform="translate(247 117)" fill="none"/>
    <path id="Add" d="M54.605,27.076v2.16l-.023.243-.076.2-.1.193-.125.145-.173.148-.2.1-.2.075-.221.023H48.788v4.71l-.025.22-.048.193-.125.2-.147.145-.147.145-.2.123-.173.048-.247.025h-2.17l-.221-.025-.2-.048-.173-.123-.2-.145-.125-.145-.1-.2-.051-.193-.023-.22v-4.71H39.691l-.2-.023-.221-.075-.173-.1-.173-.148-.147-.145-.074-.193-.074-.2-.025-.243v-2.16l.025-.22.074-.193.074-.2.147-.17.173-.12.173-.123.221-.048.2-.025h4.734V21.247l.023-.218.051-.2.1-.193.125-.17.2-.123.173-.1.2-.075.221-.023h2.17l.247.023.173.075.2.1.147.123.147.17.125.193.048.2.025.218v4.735H53.5l.221.025.2.048.2.123.173.12.125.17.1.2.076.193.023.22Z" transform="translate(209.082 97.844)" fill="#545353" fill-rule="evenodd"/>
  </g>
</svg>
