<svg xmlns="http://www.w3.org/2000/svg" width="18" height="18" viewBox="0 0 18 18">
  <g id="FolderClosed_Mark" transform="translate(-202 -140)">
    <rect id="iconBase" width="18" height="18" transform="translate(202 140)" fill="none"/>
    <path id="folder_closed" d="M27.393,56.489v6.918l-.04.2-.042.225-.08.183-.082.183-.1.164-.122.183-.164.164-.141.143-.185.122-.162.1-.185.1-.183.082-.2.04-.2.021H13.639l-.2-.021-.183-.04-.2-.082-.183-.1-.164-.1-.162-.122-.185-.143-.122-.164-.143-.183-.082-.164-.1-.183-.061-.183-.061-.225-.021-.2-.021-.2V54.04l.021-.225.021-.2.061-.183.061-.2.1-.183.082-.185.143-.162.122-.164.185-.162.162-.1.164-.122.183-.1.2-.04.183-.061.2-.021.2-.021h3.021l.2.021.2.021.2.061.185.04.183.1.164.122.183.1.143.162.162.164.124.162.1.185.1.183.061.2.061.183.019.2.021.225v.307h6.306l.2.019.2.021.2.061.183.042.185.1.162.1.185.122.141.162.164.164.122.164.1.183.082.183.08.2.042.185.04.2v.223Z" transform="translate(191.259 90.409)" fill="#9E9E9E" fill-rule="evenodd"/>
  </g>
</svg>
