<svg xmlns="http://www.w3.org/2000/svg" width="14.375" height="14.596" viewBox="0 0 14.375 14.596">
  <path id="Plus_Green" d="M52.98,26.469v1.97l-.021.221-.068.178-.087.176-.112.132-.155.135-.176.087-.178.068-.2.021H47.754v4.3l-.023.2-.043.176-.112.178-.132.132-.132.132-.178.112-.155.043-.221.023h-1.95l-.2-.023-.176-.043-.155-.112-.178-.132-.112-.132-.087-.178-.046-.176-.021-.2v-4.3H39.58l-.178-.021-.2-.068-.155-.087-.155-.135-.132-.132-.066-.176-.066-.178-.023-.221v-1.97l.023-.2.066-.176.066-.178.132-.155.155-.11.155-.112.2-.043.178-.023h4.253v-4.32l.021-.2.046-.178.087-.176.112-.155.178-.112.155-.087.176-.068.2-.021h1.95l.221.021.155.068.178.087.132.112.132.155.112.176.043.178.023.2v4.32h4.231l.2.023.178.043.176.112.155.11.112.155.087.178.068.176.021.2Z" transform="translate(-38.605 -20.156)" fill="#71a376" fill-rule="evenodd"/>
</svg>
