<svg xmlns="http://www.w3.org/2000/svg" width="18" height="18" viewBox="0 0 18 18">
  <g id="Remove" transform="translate(-0.313)">
    <rect id="iconBase" width="18" height="18" transform="translate(0.313)" fill="none"/>
    <path id="removeIcon" d="M184.551,122.827v5.936l-.02.111-.066.109-.045.045-.066.043-.109.023h-.66l-.088-.023h-.045l-.109-.088-.066-.109-.023-.111v-5.936l.023-.131.066-.111.109-.066.045-.023h.748l.109.023.066.023.045.043.066.111Zm2.6,0v5.936l-.023.111-.066.109-.109.088-.111.023h-.68l-.111-.023-.109-.088-.068-.109-.02-.111v-5.936l.02-.131.068-.111.109-.066.111-.023h.68l.111.023.109.066.066.111Zm2.6,0v5.936l-.023.111-.066.109-.109.088-.134.023h-.637l-.131-.023-.111-.088-.043-.043-.023-.066-.02-.111v-5.936l.02-.131.023-.045.043-.066.111-.066.131-.023h.637l.134.023.109.066.066.111Zm1.3,7.455V120.54h-9.06V130.5l.045.2.088.154.066.131.066.066.043.023h8.423l.043-.023.066-.066.066-.131.088-.154.045-.2Zm-6.793-11.061h4.529l-.483-1.21-.088-.086-.111-.023H184.9l-.111.023-.066.086Zm9.389.308v.66l-.023.131-.066.111-.109.086h-.066l-.088.023h-.945v9.742l-.023.2-.023.22-.02.2-.068.2-.043.154-.088.2-.109.154-.111.154-.109.131-.131.131-.154.131-.111.088-.154.045-.154.043-.154.043h-8.772l-.134-.043-.175-.043-.154-.045-.111-.088-.154-.109-.131-.131-.109-.134-.111-.152-.109-.154-.066-.177-.068-.2-.066-.177-.02-.2-.023-.2-.023-.2V120.54h-.968l-.131-.023-.109-.086-.066-.111-.023-.131v-.66l.023-.111.066-.109.109-.066.131-.023h3.124l.7-1.716.088-.2.131-.154.154-.177.177-.131.2-.109.22-.088.177-.045.22-.02h3.232l.2.02.2.045.22.088.175.109.2.131.154.177.109.154.111.2.7,1.716h3.1l.154.023.109.066.066.109Z" transform="translate(-177.05 -115.582)" fill="#545353" fill-rule="evenodd"/>
  </g>
</svg>
