<svg id="Sample_active" xmlns="http://www.w3.org/2000/svg" width="18" height="18" viewBox="0 0 18 18">
  <path id="Sample" d="M671.867,498.981l.287.02.268.037.268.077.248.1.248.094.228.154.23.171.191.211.209.209.154.211.153.268.134.228.075.268.057.268.059.268v.592l-.059.285-.057.268-.075.248-.134.248-.153.248-.154.211-.209.211-1.968,1.986.917.935.057.037v.057l.02.116-.02.094v.057l-.057.039-1.852,1.87-.077.077-.114.02-.114-.02-.057-.018-.02-.059-.954-.935-5.27,5.4-.191.132-.171.116-.228.057-.211.018H661.73l-2.253,1.128-.553-.553,1.126-2.293V510.34l.02-.248.057-.209.1-.191.152-.173,5.288-5.385-.915-.935-.077-.094v-.23l.077-.077,1.852-1.889.094-.057.057-.02h.059l.094.02.1.057.915.917,1.966-1.986.211-.211.211-.171.248-.154.228-.094.25-.1.266-.077.268-.037Zm-8.457,13.154L668.488,507l-1.679-1.718-5.079,5.135v1.718Z" transform="translate(-658 -498)" fill="#1a91c5" fill-rule="evenodd"/>
  <rect id="Icon_Base" width="18" height="18" fill="none"/>
</svg>
